<svg baseprofile="full" xmlns="http://www.w3.org/2000/svg" version="1.1" preserveAspectRatio="xMidYMid meet" viewBox="0 0 100 100">
	<g style="stroke: white; stroke-width: 8; fill: none">
		<circle cx="50" cy="50" r="15" />
		<path d="M 43.74 5.44 A 45 45 0 0 1 56.26 5.44 L 56.86 17.72 A 33 33 0 0 1 67.97 22.32 L 77.08 14.06 A 45 45 0 0 1 85.94 22.92 L 77.68 32.03 A 33 33 0 0 1 82.28 43.14 L 94.56 43.74 A 45 45 0 0 1 94.56 56.26 L 82.28 56.86 A 33 33 0 0 1 77.68 67.97 L 85.94 77.08 A 45 45 0 0 1 77.08 85.94 L 67.97 77.68 A 33 33 0 0 1 56.86 82.28 L 56.26 94.56 A 45 45 0 0 1 43.74 94.56 L 43.14 82.28 A 33 33 0 0 1 32.03 77.68 L 22.92 85.94 A 45 45 0 0 1 14.06 77.08 L 22.32 67.97 A 33 33 0 0 1 17.72 56.86 L 5.44 56.26 A 45 45 0 0 1 5.44 43.74 L 17.72 43.14 A 33 33 0 0 1 22.32 32.03 L 14.06 22.92 A 45 45 0 0 1 22.92 14.06 L 32.03 22.32 A 33 33 0 0 1 43.14 17.72 Z" />
	</g>
</svg>
